<svg id="Calque_1" data-name="Calque 1" xmlns="http://www.w3.org/2000/svg" viewBox="0 0 199.28 207.04"><defs><style>.cls-1{fill:#1a9583;}.cls-2{fill:#fef9c9;}.cls-3{fill:#fef174;}.cls-4{fill:#fed835;}</style></defs><title>E-veagricolte</title><path class="cls-1" d="M377.35,309.62s14.21-18.43,36.48-19.78c0,0-22.85-4.41-36.48,12.87V265.46s14-13.06,26.88-13.06c0,0-13.25-3.65-26.88,7.68V229.17s5-5.57,15.93-5.95c0,0-7.1-3.46-15.93,2.3L376.2,209.2H375l-.76,12.1v15.17s-13.06-8.84-24.39-3.84c0,0,19.73,2.11,22.73,6.91l-.19,19.87v15.46l.19,12.28s-17-14.59-33.86-5.37c0,0,31.44,4.22,33.86,10.94v16.9s-26.38,5-32.9,28.61c0,0-77.76-59.47,36.57-162.44,0,0,108.19,99.08,37.54,162.44C413.83,338.23,403.27,311.73,377.35,309.62Z" transform="translate(-270.27 -175.79)"/><path class="cls-1" d="M437.77,302.13s22.91-4,31.35,1c0,0,7.3,59.33-38.59,63l-10-1.78-9.07-4.46s4.46-14.26,1.58-18C413,341.83,437.94,322.25,437.77,302.13Z" transform="translate(-270.27 -175.79)"/><path class="cls-1" d="M311.53,282.35s-27.3-6.52-37.67-2.11c0,0-20.54,56.45,36.67,84.67,0,0,23,4.8,31.49-2.68,0,0-4.61-17.09-3.46-20.55C338.56,341.68,308.84,319.79,311.53,282.35Z" transform="translate(-270.27 -175.79)"/><path class="cls-1" d="M412.1,203.83s-10.37-30.92,29.57-25.35C441.67,178.48,442.24,220.91,412.1,203.83Z" transform="translate(-270.27 -175.79)"/><circle class="cls-2" cx="105.56" cy="170.89" r="36.15"/><circle class="cls-3" cx="105.56" cy="170.89" r="29.95"/><circle class="cls-4" cx="105.56" cy="170.89" r="25.79"/></svg>