<svg xmlns="http://www.w3.org/2000/svg" viewBox="0 0 377.14 332.77"><defs><style>.cls-1,.cls-2,.cls-4{fill:none;}.cls-2,.cls-3{stroke:#168141;}.cls-2,.cls-3,.cls-4{stroke-miterlimit:10;}.cls-2{stroke-width:8px;}.cls-3{fill:#138141;stroke-width:6px;}.cls-4{stroke:#fff;stroke-width:3px;}.cls-5{fill:#1a9985;}</style></defs><title>Asset 5</title><g id="Layer_2" data-name="Layer 2"><g id="Layer_1-2" data-name="Layer 1"><ellipse class="cls-1" cx="206.6" cy="166.38" rx="170.52" ry="166.37" transform="translate(-0.83 1.03) rotate(-0.29)"/><circle class="cls-2" cx="122.76" cy="210.76" r="93.67"/><path class="cls-3" d="M22.64,178.87A121,121,0,0,0,5,160a135.17,135.17,0,0,0,2.71,34.67,138.91,138.91,0,0,0,8.88,27.49,121.12,121.12,0,0,0,14,24.53,115,115,0,0,0,17.62,18.85,85.14,85.14,0,0,0,.4-29.21c-1.83-11.39-5.52-19.46-10.43-30.22C34.63,198.25,30.45,189.24,22.64,178.87Z"/><path class="cls-4" d="M53.05,263.92c-14-10.18-36-30.1-46.12-63.81a134.2,134.2,0,0,1-5.3-44.25"/><circle class="cls-5" cx="122.76" cy="210.76" r="59.16"/></g></g></svg>