<svg xmlns="http://www.w3.org/2000/svg" viewBox="0 0 377.14 332.77"><defs><style>.cls-1,.cls-2,.cls-4{fill:none;}.cls-2,.cls-3{stroke:#168141;}.cls-2,.cls-3,.cls-4{stroke-miterlimit:10;}.cls-2{stroke-width:8px;}.cls-3{fill:#138141;stroke-width:6px;}.cls-4{stroke:#fff;stroke-width:3px;}.cls-5{fill:#1a9985;}.cls-6{fill:#168141;}.cls-7{fill:#1a9583;}</style></defs><title>Logo-evea</title><g id="Layer_2" data-name="Layer 2"><g id="Layer_1-2" data-name="Layer 1"><ellipse class="cls-1" cx="206.6" cy="166.38" rx="170.52" ry="166.37" transform="translate(-0.83 1.03) rotate(-0.29)"/><circle class="cls-2" cx="122.76" cy="210.76" r="93.67"/><path class="cls-3" d="M22.64,178.87A121,121,0,0,0,5,160a135.17,135.17,0,0,0,2.71,34.67,138.91,138.91,0,0,0,8.88,27.49,121.12,121.12,0,0,0,14,24.53,115,115,0,0,0,17.62,18.85,85.14,85.14,0,0,0,.4-29.21c-1.83-11.39-5.52-19.46-10.43-30.22C34.63,198.25,30.45,189.24,22.64,178.87Z"/><path class="cls-4" d="M53.05,263.92c-14-10.18-36-30.1-46.12-63.81a134.2,134.2,0,0,1-5.3-44.25"/><circle class="cls-5" cx="122.76" cy="210.76" r="59.16"/><path class="cls-6" d="M239.91,234.26q-6.42,0-10.39-3.2-4.34-3.56-4.34-9.94a20.66,20.66,0,0,1,3.58-12.37,12.14,12.14,0,0,1,10.38-5.45,16.34,16.34,0,0,1,7.7,1.59,6.41,6.41,0,0,1,3.66,6q0,2.84-3.21,5.16a45.7,45.7,0,0,1-6,3.18l-10.84,5.14a10.3,10.3,0,0,0,4,3.54,12.07,12.07,0,0,0,5.52,1.2,17.5,17.5,0,0,0,4.6-.74c2.23-.63,3.67-1.44,4.31-2.46s1.34-1.51,2.07-1.51a2.49,2.49,0,0,1,1.78.75,2.34,2.34,0,0,1,.78,1.74c0,2.1-1.7,3.91-5.08,5.42A20.74,20.74,0,0,1,239.91,234.26Zm-.77-25.85a7.29,7.29,0,0,0-5.76,2.68q-2.3,2.68-3.43,8.07l8.71-4.14a36.77,36.77,0,0,0,7.32-4.34A9.65,9.65,0,0,0,239.14,208.41Z"/><path class="cls-7" d="M262.57,231.48q-.09,2.61-2.58,2.61c-1.39,0-2.39-.81-3-2.44l-4.34-11.52-5.06-13a3.86,3.86,0,0,1-.28-1.3,2.61,2.61,0,0,1,.88-2,2.9,2.9,0,0,1,2-.82,2.51,2.51,0,0,1,2.44,1.73l7.21,19.84q2.13-4.55,5.37-13.17.76-2.26,2.41-6.42a2.73,2.73,0,0,1,2.5-1.81,2.9,2.9,0,0,1,2,.82,2.58,2.58,0,0,1,.88,2q0,1.08-4.68,12.15Z"/><path class="cls-7" d="M279.74,234.26q-6.42,0-10.39-3.2-4.34-3.56-4.34-9.94a20.72,20.72,0,0,1,3.57-12.37A12.17,12.17,0,0,1,279,203.3a16.27,16.27,0,0,1,7.69,1.59,6.41,6.41,0,0,1,3.66,6q0,2.84-3.2,5.16a46.4,46.4,0,0,1-6,3.18l-10.84,5.14a10.3,10.3,0,0,0,4,3.54,12.07,12.07,0,0,0,5.52,1.2,17.63,17.63,0,0,0,4.6-.74c2.23-.63,3.67-1.44,4.31-2.46s1.33-1.51,2.07-1.51a2.49,2.49,0,0,1,1.77.75,2.36,2.36,0,0,1,.79,1.74q0,3.15-5.09,5.42A20.66,20.66,0,0,1,279.74,234.26ZM279,208.41a7.26,7.26,0,0,0-5.76,2.68,18.06,18.06,0,0,0-3.43,8.07l8.71-4.14a37.38,37.38,0,0,0,7.32-4.34A9.69,9.69,0,0,0,279,208.41Z"/><path class="cls-7" d="M310.35,234.83c-.36,0-1-.42-2-1.25a12.51,12.51,0,0,1-1.9-2.07,35.94,35.94,0,0,1-4.8,2.23,10.56,10.56,0,0,1-3.46.75q-6.63,0-9.68-3.75-2.87-3.51-2.86-10.78a16.27,16.27,0,0,1,4.72-11.75,15.17,15.17,0,0,1,11.28-4.88,14.43,14.43,0,0,1,5.54,1.28c2.57,1.06,3.86,2.33,3.86,3.83a1.92,1.92,0,0,1-.57,1.36,21.24,21.24,0,0,0-.44,3.55q-.15,2.46-.18,6.33a23.14,23.14,0,0,0,.48,5.56,41.37,41.37,0,0,0,1.79,5c.13.34.35.85.65,1.51l.17.48a2.46,2.46,0,0,1-.79,1.87A2.65,2.65,0,0,1,310.35,234.83Zm-13.79-19.72a23.32,23.32,0,0,1,.16-2.66c.1-.95.26-2,.46-3a13.64,13.64,0,0,0-1.8-.79,4,4,0,0,0-1.2-.26,9.86,9.86,0,0,0-7.6,3.59,12.13,12.13,0,0,0-3.19,8.28q0,4.65,1.65,7a5.64,5.64,0,0,0,4.94,2.32,9.92,9.92,0,0,0,4.62-1,17.05,17.05,0,0,0,2.87-2.16A102.07,102.07,0,0,1,296.56,215.11Z"/></g></g></svg>