<svg xmlns="http://www.w3.org/2000/svg" viewBox="0 0 404.46 332.77"><defs><style>.cls-1,.cls-2,.cls-4{fill:none;}.cls-2,.cls-3{stroke:#168141;}.cls-2,.cls-3,.cls-4{stroke-miterlimit:10;}.cls-2{stroke-width:8px;}.cls-3{fill:#138141;stroke-width:6px;}.cls-4{stroke:#fff;stroke-width:3px;}.cls-5{fill:#1a9985;}.cls-6{fill:#168141;}.cls-7{fill:#1a9583;}</style></defs><title>Logo-evea</title><g id="Layer_2" data-name="Layer 2"><g id="Layer_1-2" data-name="Layer 1"><ellipse class="cls-1" cx="206.6" cy="166.38" rx="170.52" ry="166.37" transform="translate(-0.83 1.03) rotate(-0.29)"/><circle class="cls-2" cx="122.76" cy="210.76" r="93.67"/><path class="cls-3" d="M22.64,178.87A121,121,0,0,0,5,160a135.17,135.17,0,0,0,2.71,34.67,138.91,138.91,0,0,0,8.88,27.49,121.12,121.12,0,0,0,14,24.53,115,115,0,0,0,17.62,18.85,85.14,85.14,0,0,0,.4-29.21c-1.83-11.39-5.52-19.46-10.43-30.22C34.63,198.25,30.45,189.24,22.64,178.87Z"/><path class="cls-4" d="M53.05,263.92c-14-10.18-36-30.1-46.12-63.81a134.2,134.2,0,0,1-5.3-44.25"/><circle class="cls-5" cx="122.76" cy="210.76" r="59.16"/><path class="cls-6" d="M250.7,252.84q-13.5,0-21.86-6.74-9.14-7.47-9.13-20.9,0-15.52,7.52-26,8.18-11.46,21.86-11.46,9.9,0,16.18,3.34,7.69,4.13,7.7,12.66,0,6-6.75,10.87-3,2.15-12.66,6.68l-22.81,10.81a21.77,21.77,0,0,0,8.33,7.47A25.59,25.59,0,0,0,250.7,242a36.44,36.44,0,0,0,9.67-1.56q7-2,9.08-5.16c1.35-2.13,2.81-3.2,4.36-3.2a5.23,5.23,0,0,1,3.73,1.59,5,5,0,0,1,1.64,3.67q0,6.63-10.69,11.4A43.59,43.59,0,0,1,250.7,252.84Zm-1.61-54.4A15.31,15.31,0,0,0,237,204.09q-4.83,5.64-7.22,17l18.33-8.72q10.81-5.25,15.41-9.14Q258.34,198.45,249.09,198.44Z"/><path class="cls-7" d="M298.38,247c-.13,3.66-1.94,5.5-5.44,5.5-2.91,0-5-1.72-6.33-5.14l-9.14-24.24L266.85,195.7a7.78,7.78,0,0,1-.6-2.75,5.49,5.49,0,0,1,1.85-4.18,6.12,6.12,0,0,1,4.3-1.73,5.3,5.3,0,0,1,5.14,3.64l15.16,41.74q4.49-9.55,11.29-27.71,1.61-4.77,5.07-13.49,1.86-3.83,5.26-3.82a6.09,6.09,0,0,1,4.3,1.73,5.46,5.46,0,0,1,1.85,4.12q0,2.26-9.85,25.56Z"/><path class="cls-7" d="M334.5,252.84q-13.5,0-21.86-6.74-9.13-7.47-9.13-20.9,0-15.52,7.52-26,8.18-11.46,21.86-11.46,9.9,0,16.18,3.34,7.69,4.13,7.7,12.66,0,6-6.75,10.87-3,2.15-12.66,6.68l-22.81,10.81a21.77,21.77,0,0,0,8.33,7.47A25.59,25.59,0,0,0,334.5,242a36.44,36.44,0,0,0,9.67-1.56q7.05-2,9.08-5.16c1.35-2.13,2.81-3.2,4.36-3.2a5.23,5.23,0,0,1,3.73,1.59,5,5,0,0,1,1.64,3.67q0,6.63-10.69,11.4A43.59,43.59,0,0,1,334.5,252.84Zm-1.61-54.4a15.31,15.31,0,0,0-12.13,5.65q-4.83,5.64-7.22,17l18.33-8.72q10.8-5.25,15.41-9.14Q342.14,198.45,332.89,198.44Z"/><path class="cls-7" d="M398.91,254q-1.14,0-4.12-2.63a26.2,26.2,0,0,1-4-4.36,77.68,77.68,0,0,1-10.09,4.69,22.39,22.39,0,0,1-7.29,1.58q-14,0-20.36-7.88-6-7.41-6-22.69A34.23,34.23,0,0,1,357,198a31.9,31.9,0,0,1,23.74-10.28,30.71,30.71,0,0,1,11.64,2.69q8.13,3.34,8.12,8.06a4.07,4.07,0,0,1-1.19,2.87,43.32,43.32,0,0,0-.93,7.46Q398,214,398,222.15a48.48,48.48,0,0,0,1,11.7,89.25,89.25,0,0,0,3.76,10.51c.28.72.74,1.78,1.38,3.17l.35,1a5.14,5.14,0,0,1-1.67,4A5.54,5.54,0,0,1,398.91,254Zm-29-41.5a51.71,51.71,0,0,1,.33-5.59q.33-3,1-6.42a30.88,30.88,0,0,0-3.79-1.67,8.37,8.37,0,0,0-2.54-.54q-9.25,0-16,7.56a25.41,25.41,0,0,0-6.72,17.41q0,9.78,3.46,14.69T356,242.87a20.7,20.7,0,0,0,9.73-2.09,35.22,35.22,0,0,0,6-4.54A216,216,0,0,1,369.89,212.54Z"/></g></g></svg>