<svg id="Capa_1" enable-background="new 0 0 512 512" height="512" viewBox="0 0 512 512" width="512" fill = "rgba(26, 149, 131,.8)" xmlns="http://www.w3.org/2000/svg"><g><g><g><path d="m311.032 512h-61.539l-44.231-118.541 11.832-55.217-24.617-82.644-19.245-11.901-72.809 20.263-60.191-60.19v-114.351l82.89-89.419h100.087l5.504 30.271 33.312 14.71 12.939-23.123 82.892 20.934 56.809 117.41 57.103-8.785v28.905l-16.106 54.388-35.707 53.425 1.655 76.374-39.438 39.438-14.739 46.546zm-40.713-30h27.519l42.999-46.892 14.946-47.198 35.557-35.558-1.583-73.023 38.433-57.503 10.349-34.943-41.222 6.342-60.372-124.772-47.031-11.877-15.038 26.874-72.834-32.162-3.87-21.288h-61.952l-65.988 71.185v90.158l39.021 39.021 68.589-19.088 40.126 24.815 30.067 100.938-11.604 54.151z"/></g></g></g></svg>